PathFileType	4	(X/Y/Z)	Patient4_TMGait_0pt4_03_left_18.trc.trc
DataRate	CameraRate	NumFrames	NumMarkers	Units	OrigDataRate	OrigDataStartFrame	OrigNumFrames
74.468085106383	74.468085106383	4	33	mm	74.468085106383	53	       141
Frame#	Time	Sacral			L.Shoulder			Chest			R.Shoulder			Neck			R.ASIS			L.ASIS			R.Thigh.Superior			R.Thigh.Lateral			R.Thigh.Inferior			R.Patella			L.Thigh.Superior			L.Thigh.Lateral			L.Thigh.Inferior			L.Patella			L.Shank.Superior			L.Shank.Lateral			L.Shank.Inferior			R.Shank.Superior			R.Shank.Lateral			R.Shank.Inferior			R.Heel			R.Midfoot.Superior			R.Midfoot.Lateral			R.Toe			L.Heel			L.Midfoot.Lateral			L.Midfoot.Superior			L.Toe			L.Elbow			L.Wrist			R.Elbow			R.Wrist			
		X1	Y1	Z1	X2	Y2	Z2	X3	Y3	Z3	X4	Y4	Z4	X5	Y5	Z5	X6	Y6	Z6	X7	Y7	Z7	X8	Y8	Z8	X9	Y9	Z9	X10	Y10	Z10	X11	Y11	Z11	X12	Y12	Z12	X13	Y13	Z13	X14	Y14	Z14	X15	Y15	Z15	X16	Y16	Z16	X17	Y17	Z17	X18	Y18	Z18	X19	Y19	Z19	X20	Y20	Z20	X21	Y21	Z21	X22	Y22	Z22	X23	Y23	Z23	X24	Y24	Z24	X25	Y25	Z25	X26	Y26	Z26	X27	Y27	Z27	X28	Y28	Z28	X29	Y29	Z29	X30	Y30	Z30	X31	Y31	Z31	X32	Y32	Z32	X33	Y33	Z33	

53	24.158285714286	850.863030384198	1000.801962846972	433.660828018656	1023.857663044542	1428.554466129761	227.643852270150	1131.670001029818	1368.100338606409	388.615366423654	1052.097018350449	1445.529296466680	562.789370580084	1012.872899240452	1494.824375164314	382.037493396642	1086.433729962645	948.833007409346	542.648918416334	1063.321617354451	963.848859757193	270.071319560907	1176.403680345932	781.949792744309	510.823781908686	1146.045010983721	661.931202198879	592.111143703088	1234.424636924447	625.247119736978	510.031990873856	1259.193824764132	514.111531054650	536.005192291209	1123.733888111238	753.996214742393	299.785481728047	1039.504932591867	634.201674806660	244.494734170570	1128.073102988849	560.938669506859	306.935864028129	1130.724185366865	490.821881558578	317.874952143676	1102.803183849232	416.934493405798	311.379022742597	1011.734477805090	302.945527835952	264.055814436325	1061.367763014167	192.099130325850	335.335224516266	1185.278254043114	436.306913208616	548.038074640149	1066.669232742758	396.224509408340	613.767358684618	1052.575702639465	285.409110804851	569.344876409894	855.192960895595	230.558062479379	550.052260439830	1018.770287778281	157.734572383578	587.950303351708	910.438415943079	165.099038376472	621.843009839614	1072.849633941781	36.642515319791	609.694435283802	932.186161911301	38.475392642953	381.627001639352	1002.690022027997	35.420359781602	297.842672648459	1086.843759516410	96.518545112203	322.772133767072	1214.355539640599	44.697530325992	287.924233778676	1032.913409902685	1080.904072670697	96.167680762407	1197.081630330554	874.497293623213	99.300782016272	1011.214713004101	1105.618139533048	700.293066415197	1089.759331188556	857.935115480378	726.982636271950	
54	24.171714285714	849.819409155120	1001.325911200732	431.354356471854	1025.354985965696	1429.585185800010	226.831379404045	1131.236817788336	1368.706417962231	388.865941034262	1049.731232508064	1445.876788551454	562.249487203331	1012.644325899646	1495.481328113685	381.379639398654	1084.456523194628	950.013282928522	542.223057842009	1063.523343212948	964.268349864202	269.475869782271	1176.120944841672	785.031187907167	510.444880331716	1147.504496013640	665.025651069510	592.433285815073	1235.920210276670	629.049402339073	510.132721688484	1262.631712632704	519.010651221038	536.787397226828	1122.144383478698	753.476310579519	299.839884479047	1037.221619350142	634.208206930436	243.977282702469	1124.910080128416	560.335955078698	306.768690563934	1127.023106122773	490.259013581895	317.742329703177	1098.777193612174	416.569385817730	311.225114329123	1007.377216904501	302.888153598392	263.824618477093	1056.253636513785	191.862830115172	335.257711470967	1191.173918984494	439.295343141999	548.667473332918	1073.940361688146	394.587840303391	613.732901111975	1064.622070833788	283.207913987584	569.457720418370	869.603636550085	219.245703909217	549.345156206327	1036.356293525596	154.950072521317	588.108704130808	927.665423421241	156.630209175044	621.425940419251	1096.259110369391	37.000381163647	609.998714599092	926.746274204643	38.501557901924	381.598868184387	997.289978997548	35.428079770105	297.812370677774	1081.464017936359	96.480748017135	322.748810524044	1208.989115907714	44.536966503817	287.880071427554	1037.870549671865	1082.630605971681	94.135002983067	1204.948927405135	878.625882460893	99.534052936411	1006.345035444503	1106.112717140557	699.137438328119	1080.368300121377	857.580197314000	729.559133270362	
55	24.185142857143	848.783263950018	1001.885742219971	429.130211832832	1027.002068547292	1430.565951791733	226.164969137602	1130.907139655806	1369.232835068000	389.242694964522	1047.501606791843	1446.188171213585	561.800073089589	1012.515168690780	1496.112581139932	380.842936060624	1082.435602211699	951.081794039931	541.951598555939	1063.750768741561	964.687278288537	269.005545490696	1175.423028245331	787.641656091237	510.393805997693	1148.106696117301	667.657505485333	592.974092713746	1236.492770926506	632.166153387720	510.553148582988	1264.915290605132	523.508014743637	537.868786672754	1120.422755004236	752.961775347750	300.073260851520	1034.814888422223	634.250358563096	243.483350473932	1121.561134796958	559.746447171132	306.658276540010	1123.107751523940	489.715147217983	317.624237132682	1094.578899502927	416.237945500883	311.071587204707	1002.900383828938	302.826910211142	263.592803666827	1051.072546321845	191.646252553401	335.175340954860	1196.379812385910	441.847914857388	549.605159390312	1081.046127613002	391.902809846738	614.024994012164	1077.231016344014	280.137310601351	569.902605521857	885.473443857871	205.998501987176	548.869552770285	1055.287996036909	151.384486734803	588.654608206779	946.519518249074	146.864159888749	621.383190131194	1121.536126778799	37.380927043105	611.018826172835	921.313685923547	38.526727397061	381.573977678637	991.888279612174	35.428799917542	297.785503100754	1076.078421581879	96.438703829535	322.731808751336	1203.620466845600	44.380374812083	287.841436569626	1042.592254668156	1084.275103723296	92.414320720992	1212.439509453669	882.643633403533	100.182994172114	1001.715347535897	1106.536157466466	697.983161571069	1071.511906083740	857.313229416148	731.527984026407	
56	24.198571428571	847.755012207676	1002.457962698995	426.994760538392	1028.764791899327	1431.461317381985	225.649197066709	1130.674442409454	1369.653535525760	389.739157244795	1045.427745164049	1446.437442167440	561.447247133249	1012.486033215238	1496.691032946326	380.426279453456	1080.390322464168	952.002200747458	541.829810695324	1063.985593549862	965.070695810445	268.658209019072	1174.281770083650	789.688495794273	510.660227284129	1147.773750282913	669.731737990327	593.698403765199	1236.081518224478	634.496360437928	511.270368468853	1265.971924293763	527.500923708161	539.166373888763	1118.604909547734	752.447658430401	300.442423387087	1032.317107177975	634.312525614881	243.013416261336	1118.079085733436	559.166492128800	306.591651919513	1119.038096702341	489.184688717874	317.517361292112	1090.264012617455	415.927721008092	310.918770524920	998.342885048872	302.759956653820	263.361053618897	1045.859612556828	191.443237748707	335.089366048079	1200.828258180553	443.952296082990	550.798582873733	1088.045825996808	388.284902939272	614.692470450008	1090.360418405344	276.407907482336	570.706794144593	902.914770726472	191.269866411359	548.810005792196	1075.467985029782	147.337858303498	589.592846113276	967.038527786684	136.223443868145	621.819175049239	1148.378758283286	38.055724658350	612.647974921961	915.892661022224	38.549850888234	381.549414918246	986.486304963914	35.422841639060	297.761317388980	1070.690149346919	96.391508958382	322.722413856888	1198.251099103440	44.225749803785	287.808718871893	1047.081115419965	1085.790316092856	91.005636775770	1219.548597709472	886.496194171875	101.224952168400	997.309988566447	1106.872893149851	696.852440832415	1063.229596800327	857.083997077706	732.922236840464	
